<svg id="Livello_1" data-name="Livello 1" xmlns="http://www.w3.org/2000/svg" viewBox="0 0 28 28"><defs><style>.cls-1{fill:#5c6bb0;}.cls-2{fill:#fff;}</style></defs><circle class="cls-1" cx="14" cy="14" r="14"/><polygon class="cls-2" points="16.84 7.08 16.82 7.1 16.86 7.08 16.84 7.08"/><path class="cls-2" d="M21.58,8.83A8.57,8.57,0,0,0,16.81,7.1l-.25.26a11.32,11.32,0,0,1,4.28,2.1A15.6,15.6,0,0,0,7,9.37a10.09,10.09,0,0,1,4.47-2.11l-.18-.18A8.47,8.47,0,0,0,6.4,8.82h0a21.22,21.22,0,0,0-2.51,9.62s1.39,2.39,5.21,2.48c0,0,.56-.73,1.12-1.37a5.51,5.51,0,0,1-3-1.93,3.94,3.94,0,0,1,.47.28h.08a.15.15,0,0,1,.09,0h0A.1.1,0,0,0,8,18c4.56,1.85,8.37,2.28,12.72-.46a5.5,5.5,0,0,1-3.07,1.92c.46.64,1.11,1.37,1.11,1.37a7.34,7.34,0,0,0,5.39-2.36A21.17,21.17,0,0,0,21.58,8.83Zm-10.8,8a1.83,1.83,0,0,1,0-3.66h0a1.84,1.84,0,0,1,0,3.67Zm6.33,0a1.83,1.83,0,0,1,0-3.66h0a1.84,1.84,0,0,1,0,3.67Z"/></svg>