<svg id="Livello_1" data-name="Livello 1" xmlns="http://www.w3.org/2000/svg" viewBox="0 0 28 28"><defs><style>.cls-1{fill:#fff;}.cls-2{fill:#517cbe;}.cls-3{fill:#32a853;}.cls-4{fill:#fbbc0c;}.cls-5{fill:#e84436;}.cls-6{fill:#c62320;}</style></defs><circle class="cls-1" cx="14" cy="14" r="14"/><path class="cls-2" d="M7.21,19.9h2.5V13.82L6.14,11.14v7.69A1.07,1.07,0,0,0,7.21,19.9"/><path class="cls-3" d="M18.29,19.9h2.5a1.06,1.06,0,0,0,1.07-1.07V11.14l-3.57,2.68"/><path class="cls-4" d="M18.29,9.18v4.64l3.57-2.68V9.71a1.6,1.6,0,0,0-2.57-1.28"/><path class="cls-5" d="M9.71,13.82V9.18L14,12.39l4.29-3.21v4.64L14,17"/><path class="cls-6" d="M6.14,9.71v1.43l3.57,2.68V9.18l-1-.75A1.6,1.6,0,0,0,6.14,9.71"/></svg>