<svg id="Livello_1" data-name="Livello 1" xmlns="http://www.w3.org/2000/svg" viewBox="0 0 28 28"><defs><style>.cls-1{fill:#e5415f;}.cls-2{fill:#fff;}</style></defs><circle class="cls-1" cx="14" cy="14" r="14"/><path class="cls-2" d="M14,7.65c2.07,0,2.31,0,3.13,0,2.1.1,3.08,1.1,3.18,3.18,0,.82,0,1.06,0,3.13s0,2.31,0,3.13c-.1,2.08-1.08,3.08-3.18,3.18-.82,0-1.06,0-3.13,0s-2.31,0-3.13,0c-2.11-.1-3.08-1.1-3.18-3.18,0-.82,0-1.06,0-3.13s0-2.31,0-3.13c.1-2.08,1.08-3.08,3.18-3.18C11.69,7.66,11.93,7.65,14,7.65Zm0-1.4c-2.1,0-2.37,0-3.19,0A4.28,4.28,0,0,0,6.3,10.81c0,.82,0,1.09,0,3.19s0,2.37,0,3.19a4.28,4.28,0,0,0,4.51,4.51c.82,0,1.09.05,3.19.05s2.37,0,3.19-.05a4.28,4.28,0,0,0,4.51-4.51c0-.82.05-1.09.05-3.19s0-2.37-.05-3.19C21.57,8,20,6.43,17.2,6.3,16.37,6.26,16.1,6.25,14,6.25ZM14,10a4,4,0,1,0,4,4A4,4,0,0,0,14,10Zm0,6.56A2.58,2.58,0,1,1,16.58,14,2.57,2.57,0,0,1,14,16.58Zm4.14-7.64a.93.93,0,1,0,.92.92A.92.92,0,0,0,18.14,8.94Z"/></svg>