<svg id="Livello_1" data-name="Livello 1" xmlns="http://www.w3.org/2000/svg" viewBox="0 0 28 28"><defs><style>.cls-1{fill:#38a4dd;}.cls-2{fill:#fff;}</style></defs><circle class="cls-1" cx="14" cy="14" r="14"/><path class="cls-2" d="M22,15.63A8.09,8.09,0,0,0,12.7,6,4.73,4.73,0,0,0,5.47,10a4.6,4.6,0,0,0,.64,2.35,8.09,8.09,0,0,0,9.47,9.5A4.7,4.7,0,0,0,22,15.63Zm-8,3.8a4.91,4.91,0,0,1-4.26-1.78c-1.43-2,.46-3,1.39-2.27.77.65.53,2.23,2.81,2.23,1,0,2.24-.43,2.24-1.42,0-2-4.44-1.06-6.21-3.24a2.67,2.67,0,0,1,0-3.23c1.39-1.79,5.46-1.89,7.21-.55s1.18,2.92-.13,2.92c-1.56,0-.74-2.06-3.27-2.06-1.84,0-2.56,1.31-1.27,2,1.72.85,6.22.58,6.22,4C18.83,18.35,16.52,19.43,14.07,19.43Z"/></svg>