<svg id="Livello_1" data-name="Livello 1" xmlns="http://www.w3.org/2000/svg" viewBox="0 0 28 28"><defs><style>.cls-1{fill:#fff;}.cls-2{fill:#f49719;}.cls-3{fill:#1eb8d1;}.cls-4{fill:#4daf50;}.cls-5{fill:#e72264;}</style></defs><circle class="cls-1" cx="14" cy="14" r="14"/><path class="cls-2" d="M21.18,14.51H16a1.53,1.53,0,1,0,0,3.06h5.14a1.53,1.53,0,1,0,0-3.06Z"/><path class="cls-3" d="M12,10.43H6.82a1.53,1.53,0,0,0,0,3.06H12a1.53,1.53,0,0,0,0-3.06Z"/><path class="cls-4" d="M16,13.49A1.53,1.53,0,0,0,17.57,12V6.82a1.53,1.53,0,0,0-3.06,0V12A1.54,1.54,0,0,0,16,13.49Z"/><path class="cls-5" d="M12,14.51A1.53,1.53,0,0,0,10.43,16v5.14a1.53,1.53,0,0,0,3.06,0V16A1.54,1.54,0,0,0,12,14.51Z"/><path class="cls-4" d="M19.14,13.49h1.53a2,2,0,1,0-2-2V13A.51.51,0,0,0,19.14,13.49Z"/><path class="cls-5" d="M8.86,14.51H7.33a2,2,0,1,0,2,2V15A.51.51,0,0,0,8.86,14.51Z"/><path class="cls-3" d="M11.45,5.29a2,2,0,0,0,0,4.08H13a.51.51,0,0,0,.51-.51V7.33A2,2,0,0,0,11.45,5.29Z"/><path class="cls-2" d="M16.55,18.63H15a.51.51,0,0,0-.51.51v1.53a2,2,0,1,0,2-2Z"/></svg>